<svg width="20" height="21" viewBox="0 0 20 21" fill="none" xmlns="http://www.w3.org/2000/svg">
<path d="M19.4608 9.4333C19.4603 9.43283 19.4599 9.43237 19.4594 9.4319L11.301 1.13835C10.9532 0.784676 10.4909 0.589844 9.9991 0.589844C9.50731 0.589844 9.04497 0.784521 8.69707 1.1382L0.542928 9.42756C0.540182 9.43035 0.537435 9.4333 0.534689 9.43609C-0.179423 10.1662 -0.178202 11.3509 0.538198 12.0792C0.865499 12.4121 1.29778 12.6049 1.75997 12.6251C1.77874 12.6269 1.79766 12.6279 1.81673 12.6279H2.1419V18.7314C2.1419 19.9392 3.10854 20.9219 4.2969 20.9219H7.48873C7.81222 20.9219 8.07467 20.6552 8.07467 20.3262V15.541C8.07467 14.9899 8.51565 14.5416 9.05779 14.5416H10.9404C11.4826 14.5416 11.9235 14.9899 11.9235 15.541V20.3262C11.9235 20.6552 12.1858 20.9219 12.5095 20.9219H15.7013C16.8897 20.9219 17.8563 19.9392 17.8563 18.7314V12.6279H18.1578C18.6495 12.6279 19.1118 12.4332 19.4599 12.0795C20.177 11.35 20.1773 10.1633 19.4608 9.4333Z" fill="#757897"/>
</svg>
