<svg width="16" height="20" viewBox="0 0 16 20" fill="none" xmlns="http://www.w3.org/2000/svg">
<path d="M7 12.825V16C7 16.2833 7.096 16.5207 7.288 16.712C7.47933 16.904 7.71667 17 8 17C8.28333 17 8.521 16.904 8.713 16.712C8.90433 16.5207 9 16.2833 9 16V12.825L9.9 13.725C10 13.825 10.1127 13.9 10.238 13.95C10.3627 14 10.4877 14.0207 10.613 14.012C10.7377 14.004 10.8583 13.975 10.975 13.925C11.0917 13.875 11.2 13.8 11.3 13.7C11.4833 13.5 11.5793 13.2667 11.588 13C11.596 12.7333 11.5 12.5 11.3 12.3L8.7 9.7C8.6 9.6 8.49167 9.529 8.375 9.487C8.25833 9.44567 8.13333 9.425 8 9.425C7.86667 9.425 7.74167 9.44567 7.625 9.487C7.50833 9.529 7.4 9.6 7.3 9.7L4.7 12.3C4.5 12.5 4.40433 12.7333 4.413 13C4.421 13.2667 4.525 13.5 4.725 13.7C4.925 13.8833 5.15833 13.9793 5.425 13.988C5.69167 13.996 5.925 13.9 6.125 13.7L7 12.825ZM2 20C1.45 20 0.979333 19.8043 0.588 19.413C0.196 19.021 0 18.55 0 18V2C0 1.45 0.196 0.979 0.588 0.587C0.979333 0.195667 1.45 0 2 0H9.175C9.44167 0 9.696 0.0500001 9.938 0.15C10.1793 0.25 10.3917 0.391667 10.575 0.575L15.425 5.425C15.6083 5.60833 15.75 5.82067 15.85 6.062C15.95 6.304 16 6.55833 16 6.825V18C16 18.55 15.8043 19.021 15.413 19.413C15.021 19.8043 14.55 20 14 20H2ZM9 6C9 6.28333 9.096 6.52067 9.288 6.712C9.47933 6.904 9.71667 7 10 7H14L9 2V6Z" fill="#757897"/>
</svg>
